<?xml version="1.0" encoding="UTF-8" standalone="no"?>
<!-- Generator: Adobe Illustrator 19.0.0, SVG Export Plug-In . SVG Version: 6.00 Build 0)  -->

<svg
   xmlns:dc="http://purl.org/dc/elements/1.1/"
   xmlns:cc="http://creativecommons.org/ns#"
   xmlns:rdf="http://www.w3.org/1999/02/22-rdf-syntax-ns#"
   xmlns:svg="http://www.w3.org/2000/svg"
   xmlns="http://www.w3.org/2000/svg"
   xmlns:sodipodi="http://sodipodi.sourceforge.net/DTD/sodipodi-0.dtd"
   xmlns:inkscape="http://www.inkscape.org/namespaces/inkscape"
   version="1.1"
   id="Layer_1"
   x="0px"
   y="0px"
   viewBox="0 0 446.8 446.8"
   style="enable-background:new 0 0 446.8 446.8;"
   xml:space="preserve"
   inkscape:version="0.91 r13725"
   sodipodi:docname="zoommeno.svg"
   inkscape:export-filename="C:\Users\utente\Downloads\zoom-in.png"
   inkscape:export-xdpi="6.4499998"
   inkscape:export-ydpi="6.4499998"><metadata
     id="metadata59"><rdf:RDF><cc:Work
         rdf:about=""><dc:format>image/svg+xml</dc:format><dc:type
           rdf:resource="http://purl.org/dc/dcmitype/StillImage" /><dc:title></dc:title></cc:Work></rdf:RDF></metadata><defs
     id="defs57" /><sodipodi:namedview
     pagecolor="#ffffff"
     bordercolor="#666666"
     borderopacity="1"
     objecttolerance="10"
     gridtolerance="10"
     guidetolerance="10"
     inkscape:pageopacity="0"
     inkscape:pageshadow="2"
     inkscape:window-width="1204"
     inkscape:window-height="726"
     id="namedview55"
     showgrid="false"
     inkscape:zoom="1.0564011"
     inkscape:cx="-31.332864"
     inkscape:cy="289.38364"
     inkscape:window-x="239"
     inkscape:window-y="117"
     inkscape:window-maximized="0"
     inkscape:current-layer="Layer_1" /><g
     id="g3"><path
       style="fill:#149FDD;"
       d="M56.4,56.1c-75.2,75.2-75.2,196.8,0,271.2s196.8,75.2,271.2,0c75.2-75.2,75.2-196.8,0-271.2   C253.2-18.3,131.6-18.3,56.4,56.1z M290.8,290.5c-54.4,54.4-142.4,54.4-196.8,0S39.6,148.1,94,93.7s142.4-54.4,196.8,0   S345.2,236.1,290.8,290.5z"
       id="path5" /><circle
       style="fill:#149FDD;"
       cx="363.6"
       cy="363.3"
       r="20"
       id="circle7" /></g><g
     id="g9"><path
       style="fill:#1D76BF;"
       d="M118.8,205.7c-7.2,0-13.6-8-13.6-15.2l0,0c0-7.2,5.6-15.2,13.6-15.2H266c7.2,0,13.6,8,13.6,15.2l0,0   c0,7.2-5.6,14.4-13.6,14.4L118.8,205.7z"
       id="path13" /></g><path
     style="fill:#149FDD;"
     d="M442,374.5c6.4,6.4,6.4,16,0,21.6l-45.6,45.6c-6.4,6.4-16,6.4-21.6,0l0,0c-6.4-6.4-6.4-16,0-21.6  l45.6-45.6C426.8,368.9,436.4,368.9,442,374.5L442,374.5z"
     id="path15" /><g
     id="g17"><path
       style="fill:#1D76BF;"
       d="M420.4,374.5L398,396.9l21.6,21.6l22.4-22.4c6.4-6.4,6.4-16,0-21.6   C436.4,368.9,426.8,368.9,420.4,374.5z"
       id="path19" /><path
       style="fill:#1D76BF;"
       d="M349.2,348.9L349.2,348.9l28,28l0,0c8-8,8-20,0-28S357.2,341.7,349.2,348.9z"
       id="path21" /><path
       style="fill:#1D76BF;"
       d="M56.4,56.1L56.4,56.1L94,93.7l0,0c54.4-54.4,142.4-54.4,196.8,0s54.4,142.4,0,196.8l0,0l37.6,37.6   l0,0c75.2-75.2,75.2-196.8,0-271.2C253.2-18.3,131.6-18.3,56.4,56.1z"
       id="path23" /></g><g
     id="g25" /><g
     id="g27" /><g
     id="g29" /><g
     id="g31" /><g
     id="g33" /><g
     id="g35" /><g
     id="g37" /><g
     id="g39" /><g
     id="g41" /><g
     id="g43" /><g
     id="g45" /><g
     id="g47" /><g
     id="g49" /><g
     id="g51" /><g
     id="g53" /></svg>